# xmcd
#
# Track frame offsets:
#	150
#	13394
#	31580
#	49877
#	71414
#	83915
#	98356
#	111237
#	124533
#	139962
#	156875
#	172630
#	184159
#	199600
#	216560
#	233593
#	248850
#	266735
#	278297
#	278962
#	279655
#	280413
#
# Disc length: 3744 seconds
#
# Revision: 2
# Processed by: cddbd v1.5.2PL0 Copyright (c) Steve Scherf et al.
# Submitted via: audiograbber 1.83.01
#
DISCID=3b0e9e16
DTITLE=Various Artist - Cdx - Volume 479
DYEAR=2009
DGENRE=Country
TTITLE0=Easton Corbin - A Little More Country Than That
TTITLE1=Dierks Bentley - I Wanna Make You Close Your Eyes
TTITLE2=Mallary Hope - Love Lives On
TTITLE3=Brad Paisley - Welcome To The Future
TTITLE4=Steve Martin With Dolly Parton and Vince Gill - Pretty Flowers
TTITLE5=Fast Ryde - That Thang
TTITLE6=Heartland - Mustache
TTITLE7=Krista Marie - Tomboy
TTITLE8=Katie Armiger - Gone
TTITLE9=Terri Clark - Gypsy Boots
TTITLE10=Ash Bowers - Stuck
TTITLE11=Mitchell John - Absolutely, Positively, Might Be
TTITLE12=Bridgette Tatum - I Like My Cowboys Dirty
TTITLE13=Daniel Smith - Life, Liberty and The Pursuit Of Happy Hour
TTITLE14=Ashton Jackson - Our World Stood Still
TTITLE15=Megan Munroe - Pennies In The Ocean
TTITLE16=Shane Wyatt - She Could Do Better
TTITLE17=Mike Aiken - Bottom's Up
TTITLE18=Mike Aiken - Liners
TTITLE19=Mike Aiken - Liners
TTITLE20=Mike Aiken - Liners
TTITLE21=Mike Aiken - Liners
EXTD=
EXTT0=
EXTT1=
EXTT2=
EXTT3=
EXTT4=
EXTT5=
EXTT6=
EXTT7=
EXTT8=
EXTT9=
EXTT10=
EXTT11=
EXTT12=
EXTT13=
EXTT14=
EXTT15=
EXTT16=
EXTT17=
EXTT18=
EXTT19=
EXTT20=
EXTT21=
PLAYORDER=
